<?xml version="1.0" encoding="utf-8"?>
<!-- Generator: Adobe Illustrator 21.1.0, SVG Export Plug-In . SVG Version: 6.00 Build 0)  -->
<svg version="1.1" id="Capa_1" xmlns="http://www.w3.org/2000/svg" xmlns:xlink="http://www.w3.org/1999/xlink" x="0px" y="0px"
	 viewBox="0 0 512 512" style="enable-background:new 0 0 512 512;" xml:space="preserve">
<style type="text/css">
	.st0{fill:#576272;}
</style>
<g>
	<path class="st0" d="M256,0C114.6,0,0,114.6,0,256s114.6,256,256,256s256-114.6,256-256S397.4,0,256,0z M256,489
		C127.4,489,23,384.6,23,256S127.4,23,256,23s233,104.4,233,233S384.6,489,256,489z"/>
	<path class="st0" d="M256,92.6c-90.2,0-163.4,73.1-163.4,163.4c0,90.2,73.2,163.4,163.4,163.4S419.4,346.2,419.4,256
		S346.2,92.6,256,92.6z M356.1,177.3c15.9,20.2,25.9,45.3,27.2,72.7c-18.4-3.9-35.9-5.8-52.1-5.8l0,0h-0.1
		c-13.1,0-25.4,1.2-36.9,3.2c-2.8-6.9-5.7-13.5-8.5-19.9C311.4,216.3,336.1,200.2,356.1,177.3z M256,128.5c30.1,0,57.7,10.5,79.5,28
		c-16.7,20-38.8,34.5-62.6,44.7c-16.8-32.4-32.9-55.6-44-69.7C237.7,129.6,246.7,128.5,256,128.5z M199.7,141.8
		c8.9,10.5,26.6,33.4,45.5,69.4c-38.5,11.4-77.2,14.1-100.7,14.1c-0.7,0-1.4,0-2,0l0,0c-3.9,0-7.3-0.1-10.2-0.2
		C141.5,188.5,166.5,158.2,199.7,141.8z M128.5,256c0-0.6,0-1.2,0.1-1.8c3.6,0.1,8.3,0.3,13.9,0.3l0,0c25.6-0.2,70.4-2.3,115.7-16.6
		c2.5,5.4,4.9,11,7.3,16.9c-30.3,10.1-54.1,26.2-71.8,42.3c-17,15.5-28.4,30.8-35.1,41C139.9,315.8,128.5,287.3,128.5,256z
		 M256,383.5c-28.4,0-54.5-9.4-75.8-25.1c4.5-7.4,14.2-21.6,29.6-36.4c15.8-15.2,37.7-30.8,66.2-40.1c9.7,27.2,18.5,58.3,25.2,93.3
		C287.2,380.5,271.9,383.5,256,383.5z M328.1,360.9c-6.5-31.7-14.6-60.2-23.5-85.7c8.3-1.2,17-1.9,26.1-1.9h0.3l0,0l0,0
		c15.2,0,31.9,1.9,50,6C374.9,313,355.4,342.1,328.1,360.9z"/>
</g>
</svg>
